<svg xmlns="http://www.w3.org/2000/svg" width="30" height="30" viewBox="0 0 30 30">
  <g id="箭头" transform="translate(0 30) rotate(-90)">
    <path id="路径_33" data-name="路径 33" d="M100.333,113.833a13.467,13.467,0,1,0-5.257-1.063,13.412,13.412,0,0,0,5.257,1.063m0,1.5a15,15,0,1,1,15-15,15,15,0,0,1-15,15Z" transform="translate(-85.334 -85.333)" fill="#fafafa"/>
    <path id="路径_34" data-name="路径 34" d="M306.3,391.111a.744.744,0,0,0-.53.22l-6.47,6.47-6.47-6.47a.75.75,0,1,0-1.06,1.06l7,7a.748.748,0,0,0,1.06,0l.01-.01,6.99-6.99a.75.75,0,0,0-.53-1.28Z" transform="translate(-284.305 -380.361)" fill="#fafafa"/>
  </g>
</svg>
