<svg xmlns="http://www.w3.org/2000/svg" width="2016.608" height="808.196" viewBox="0 0 2016.608 808.196">
  <g id="组_21" data-name="组 21" transform="translate(-255.131 -5289.403)" opacity="0.1">
    <path id="联合_1" data-name="联合 1" d="M201.61,808.2,0,381.371H152.811L353.739,808.2ZM0,381.371,207.344,0H353.739L152.128,381.371Z" transform="translate(255.131 5289.403)"/>
    <path id="联合_2" data-name="联合 2" d="M201.61,808.2,0,381.371H152.811L353.739,808.2ZM0,381.371,207.344,0H353.739L152.128,381.371Z" transform="translate(463.279 5289.403)" fill="#707070"/>
    <path id="联合_3" data-name="联合 3" d="M201.61,808.2,0,381.371H152.811L353.739,808.2ZM0,381.371,207.344,0H353.739L152.128,381.371Z" transform="translate(658 5289.403)"/>
    <path id="联合_4" data-name="联合 4" d="M201.61,808.2,0,381.371H152.811L353.739,808.2ZM0,381.371,207.344,0H353.739L152.128,381.371Z" transform="translate(877.631 5289.403)" fill="#707070"/>
    <path id="联合_5" data-name="联合 5" d="M201.61,808.2,0,381.371H152.811L353.739,808.2ZM0,381.371,207.344,0H353.739L152.128,381.371Z" transform="translate(1075.782 5289.403)"/>
    <path id="联合_6" data-name="联合 6" d="M201.61,808.2,0,381.371H152.811L353.739,808.2ZM0,381.371,207.344,0H353.739L152.128,381.371Z" transform="translate(1291.782 5289.403)" fill="#6c6c6c"/>
    <path id="联合_7" data-name="联合 7" d="M201.61,808.2,0,381.371H152.811L353.739,808.2ZM0,381.371,207.344,0H353.739L152.128,381.371Z" transform="translate(1503 5289.403)"/>
    <path id="联合_9" data-name="联合 9" d="M201.61,808.2,0,381.371H152.811L353.739,808.2ZM0,381.371,207.344,0H353.739L152.128,381.371Z" transform="translate(1918 5289.403)"/>
    <path id="联合_8" data-name="联合 8" d="M201.61,808.2,0,381.371H152.811L353.739,808.2ZM0,381.371,207.344,0H353.739L152.128,381.371Z" transform="translate(1709 5289.403)" fill="#6c6c6c"/>
  </g>
</svg>
