<svg xmlns="http://www.w3.org/2000/svg" width="49.776" height="34.128" viewBox="0 0 49.776 34.128">
  <g id="组_12" data-name="组 12" transform="translate(-41.485 -1598.159)">
    <path id="路径_26" data-name="路径 26" d="M2275.509,1631.68c.21.113-8.84.113-12.515-1.506s-8.419-7.545-9.714-9.6a11.4,11.4,0,0,1-1.3-5.181,53.453,53.453,0,0,1,7.8-.617,15.875,15.875,0,0,1,4.716.617c4.112,1.392,8.743,7.658,8.743,7.658S2275.3,1631.566,2275.509,1631.68Z" transform="translate(-2210)" fill="none" stroke="#fff" stroke-width="1"/>
    <path id="路径_27" data-name="路径 27" d="M2259.205,1614.776c.437-12.772,1.409-12.983,1.409-12.983s8.208,2.7,9.39,4.209" transform="translate(-2210)" fill="none" stroke="#fff" stroke-width="1"/>
    <path id="路径_28" data-name="路径 28" d="M2267.414,1616.785s.874-8.095,3.028-10.9,6.152-7.01,6.152-7.01,6.573,6.686,7.334,10.572,1.312,7.448,1.085,8.743" transform="translate(-2210)" fill="none" stroke="#fff" stroke-width="1"/>
    <path id="路径_29" data-name="路径 29" d="M2278.634,1623.249s5.407-5.59,7.885-6.237,11.965-3.125,14.458-1.943" transform="translate(-2210)" fill="none" stroke="#fff" stroke-width="1"/>
    <path id="路径_30" data-name="路径 30" d="M2277,1631.722s9.081.411,13.08-1.759,8.208-6.606,9.18-8.969a31.989,31.989,0,0,0,1.506-6.152" transform="translate(-2210)" fill="none" stroke="#fff" stroke-width="1"/>
    <path id="路径_31" data-name="路径 31" d="M2282.632,1606s4.209-2.72,6.152-3.141,3.772-.858,3.772-.858,1.635,4,1.522,6.913,0,6.152,0,6.152" transform="translate(-2210)" fill="none" stroke="#fff" stroke-width="1"/>
    <path id="路径_32" data-name="路径 32" d="M2274.1,1631.722a10.659,10.659,0,0,1-3.659-2.309,4.991,4.991,0,0,1-1.409-3.125h2.38a6.8,6.8,0,0,1,2.688.858s-.971-1.182,0-3.772,2.554-2.8,2.554-2.8a7.265,7.265,0,0,1,1.814,2.8,21.3,21.3,0,0,1,.527,4.188s1.054-1.547,2.115-1.7a21.708,21.708,0,0,1,3.254,0s-.828,2.869-1.814,3.552-3.061,2.388-3.288,2.309S2274.1,1631.722,2274.1,1631.722Z" transform="translate(-2210)" fill="#fff" stroke="#fff" stroke-width="1"/>
  </g>
</svg>
